<svg width="624" height="182" viewBox="0 0 624 182" fill="none" xmlns="http://www.w3.org/2000/svg">
<path d="M139.433 153.62C134.513 153.62 130.733 151.7 128.093 147.86C125.453 144.02 124.973 138.8 126.653 132.2L141.053 77.84C142.613 72.2 141.653 69.38 138.173 69.38C135.653 69.38 133.133 71.18 130.613 74.78C128.213 78.38 125.573 84.26 122.693 92.42C122.213 93.86 121.373 94.58 120.173 94.58C119.573 94.58 119.093 94.34 118.733 93.86C118.373 93.26 118.313 92.54 118.553 91.7C125.513 69.98 134.213 59.12 144.653 59.12C148.733 59.12 151.493 60.8 152.933 64.16C154.373 67.52 154.313 72.14 152.753 78.02L137.633 135.44C136.553 139.52 136.493 142.52 137.453 144.44C138.413 146.36 139.853 147.32 141.773 147.32C147.653 147.32 154.193 140.12 161.393 125.72C168.713 111.2 175.133 90.02 180.653 62.18C181.013 60.86 181.853 60.2 183.173 60.2H190.193C191.873 60.2 192.533 60.98 192.173 62.54L177.773 135.44C176.933 139.4 176.993 142.4 177.953 144.44C179.033 146.36 180.713 147.32 182.993 147.32C186.473 147.32 190.013 145.64 193.613 142.28C197.213 138.92 200.453 134.54 203.333 129.14C206.333 123.74 208.733 117.8 210.533 111.32C212.333 104.84 213.233 98.48 213.233 92.24C213.233 87.2 212.813 83.24 211.973 80.36C211.253 77.36 210.473 74.84 209.633 72.8C208.793 70.76 208.373 68.54 208.373 66.14C208.373 61.46 210.413 59.12 214.493 59.12C217.373 59.12 219.233 60.74 220.073 63.98C220.913 67.1 221.333 71.84 221.333 78.2C221.333 87.32 220.193 96.38 217.913 105.38C215.753 114.26 212.753 122.36 208.913 129.68C205.193 136.88 200.873 142.7 195.953 147.14C191.153 151.46 186.053 153.62 180.653 153.62C175.493 153.62 171.533 151.64 168.773 147.68C166.013 143.6 165.413 137.72 166.973 130.04C167.213 129.2 167.033 128.72 166.433 128.6C165.953 128.48 165.533 128.78 165.173 129.5C161.813 136.22 158.033 141.92 153.833 146.6C149.633 151.28 144.833 153.62 139.433 153.62ZM252.181 153.62C244.741 153.62 238.861 150.56 234.541 144.44C230.221 138.2 228.061 129.8 228.061 119.24C228.061 111.44 229.321 103.94 231.841 96.74C234.361 89.54 237.661 83.12 241.741 77.48C245.941 71.84 250.561 67.4 255.601 64.16C260.761 60.8 265.921 59.12 271.081 59.12C278.521 59.12 284.401 62.18 288.721 68.3C293.041 74.42 295.201 82.82 295.201 93.5C295.201 101.3 293.941 108.8 291.421 116C288.901 123.2 285.541 129.62 281.341 135.26C277.261 140.9 272.641 145.4 267.481 148.76C262.441 152 257.341 153.62 252.181 153.62ZM251.821 149.3C255.661 149.3 259.381 147.44 262.981 143.72C266.701 140 270.061 135.08 273.061 128.96C276.061 122.84 278.461 116.06 280.261 108.62C282.061 101.06 282.961 93.5 282.961 85.94C282.961 70.94 279.061 63.44 271.261 63.44C267.541 63.44 263.821 65.3 260.101 69.02C256.381 72.62 253.021 77.48 250.021 83.6C247.141 89.72 244.801 96.56 243.001 104.12C241.201 111.56 240.301 119.06 240.301 126.62C240.301 141.74 244.141 149.3 251.821 149.3ZM315.012 153.62C310.692 153.62 307.332 151.76 304.932 148.04C302.532 144.32 301.332 138.86 301.332 131.66C301.332 124.82 302.292 117.98 304.212 111.14C306.132 104.18 308.772 97.58 312.132 91.34C315.492 85.1 319.272 79.58 323.472 74.78C327.792 69.98 332.292 66.2 336.972 63.44C341.772 60.56 346.512 59.12 351.192 59.12C353.472 59.12 355.632 59.6 357.672 60.56C359.712 61.4 361.392 62.78 362.712 64.7C363.432 65.78 364.152 66.32 364.872 66.32C365.592 66.32 366.312 65.78 367.032 64.7C368.352 62.78 369.432 61.58 370.272 61.1C371.112 60.5 371.892 60.2 372.612 60.2C374.172 60.2 374.772 61.04 374.412 62.72L358.392 131.66C356.592 139.46 357.792 143.36 361.992 143.36C364.752 143.36 367.212 141.5 369.372 137.78C371.652 134.06 373.932 128.3 376.212 120.5C376.572 119.18 377.352 118.52 378.552 118.52C379.392 118.52 379.932 118.88 380.172 119.6C380.412 120.32 380.412 121.16 380.172 122.12C377.892 133.4 374.832 141.5 370.992 146.42C367.152 151.22 362.532 153.62 357.132 153.62C352.452 153.62 349.092 151.64 347.052 147.68C345.132 143.72 344.952 138.32 346.512 131.48L348.852 121.58C349.092 120.74 348.912 120.26 348.312 120.14C347.832 120.02 347.412 120.32 347.052 121.04C340.452 133.16 334.572 141.62 329.412 146.42C324.372 151.22 319.572 153.62 315.012 153.62ZM319.512 144.44C322.392 144.44 325.572 142.7 329.052 139.22C332.532 135.74 335.952 131.24 339.312 125.72C342.792 120.2 345.972 114.26 348.852 107.9C351.732 101.54 354.012 95.42 355.692 89.54C357.492 83.66 358.392 78.68 358.392 74.6C358.392 67.28 355.812 63.62 350.652 63.62C347.532 63.62 344.232 65.06 340.752 67.94C337.272 70.7 333.912 74.48 330.672 79.28C327.552 84.08 324.672 89.54 322.032 95.66C319.512 101.66 317.472 107.96 315.912 114.56C314.352 121.04 313.572 127.4 313.572 133.64C313.572 137.84 314.052 140.72 315.012 142.28C316.092 143.72 317.592 144.44 319.512 144.44ZM442.206 153.62C437.886 153.62 434.646 151.82 432.486 148.22C430.326 144.62 430.206 139.04 432.126 131.48L445.986 79.28C447.306 74.6 447.486 71.36 446.526 69.56C445.686 67.76 444.426 66.86 442.746 66.86C440.106 66.86 437.106 68.54 433.746 71.9C430.506 75.14 427.086 79.64 423.486 85.4C420.006 91.04 416.586 97.46 413.226 104.66C409.986 111.74 406.986 119.24 404.226 127.16C401.466 134.96 399.246 142.58 397.566 150.02C397.206 151.34 396.366 152 395.046 152H387.486C385.806 152 385.146 151.22 385.506 149.66L411.786 36.8C412.386 34.64 412.386 33.14 411.786 32.3C411.306 31.46 410.226 30.98 408.546 30.86L403.146 30.32C401.346 30.2 400.566 29.42 400.806 27.98C401.046 26.9 401.886 26.24 403.326 26C407.646 25.28 411.486 24.44 414.846 23.48C418.206 22.4 420.906 21.02 422.946 19.34C423.906 18.62 424.806 18.26 425.646 18.26C427.086 18.26 427.626 19.16 427.266 20.96L409.626 97.46C409.506 98.3 409.686 98.78 410.166 98.9C410.646 99.02 411.066 98.72 411.426 98C416.226 88.16 420.786 80.42 425.106 74.78C429.426 69.14 433.446 65.12 437.166 62.72C441.006 60.32 444.486 59.12 447.606 59.12C452.046 59.12 455.286 60.92 457.326 64.52C459.366 68.12 459.366 73.64 457.326 81.08L443.646 133.28C442.806 136.64 442.746 139.16 443.466 140.84C444.186 142.52 445.506 143.36 447.426 143.36C449.826 143.36 452.166 141.8 454.446 138.68C456.726 135.44 459.186 129.38 461.826 120.5C462.186 119.18 462.966 118.52 464.166 118.52C465.126 118.52 465.666 118.88 465.786 119.6C466.026 120.32 466.026 121.16 465.786 122.12C463.506 130.28 461.046 136.7 458.406 141.38C455.766 145.94 453.066 149.12 450.306 150.92C447.666 152.72 444.966 153.62 442.206 153.62ZM481.012 153.62C478.492 153.62 476.452 152.84 474.892 151.28C473.332 149.6 472.552 147.56 472.552 145.16C472.552 142.04 473.632 139.52 475.792 137.6C477.952 135.68 480.232 134.72 482.632 134.72C485.032 134.72 487.012 135.56 488.572 137.24C490.252 138.8 491.092 140.78 491.092 143.18C491.092 146.3 490.012 148.82 487.852 150.74C485.692 152.66 483.412 153.62 481.012 153.62Z" fill="#FF0000"/>
</svg>
